<?xml version="1.0" standalone="no"?>
<!DOCTYPE svg PUBLIC "-//W3C//DTD SVG 20010904//EN"
 "http://www.w3.org/TR/2001/REC-SVG-20010904/DTD/svg10.dtd">
<svg version="1.0" xmlns="http://www.w3.org/2000/svg"
 width="512.000000pt" height="512.000000pt" viewBox="0 0 512.000000 512.000000"
 preserveAspectRatio="xMidYMid meet">
<metadata>
Created by potrace 1.14, written by Peter Selinger 2001-2017
</metadata>
<g transform="translate(0.000000,512.000000) scale(0.100000,-0.100000)"
fill="#000000" stroke="none">
<path d="M773 3868 c-51 -76 -77 -150 -91 -258 -34 -255 106 -537 356 -717 48
-35 60 -48 52 -58 -8 -10 -19 -11 -43 -3 -18 5 -57 16 -87 25 -30 8 -61 19
-67 25 -7 6 -13 8 -13 5 0 -6 -175 54 -290 101 -132 53 -367 170 -406 203 -14
11 -18 11 -29 -4 -7 -10 -11 -30 -10 -45 2 -15 6 -46 9 -69 13 -105 94 -284
165 -367 92 -107 180 -178 291 -238 70 -37 215 -88 252 -88 39 0 67 -39 30
-41 -325 -18 -524 -85 -665 -223 -74 -73 -131 -171 -107 -186 8 -5 22 -7 30
-4 8 3 56 5 107 5 93 0 155 -12 288 -56 128 -41 255 -48 370 -19 22 6 28 0 55
-58 95 -206 296 -381 570 -495 143 -60 360 -122 484 -138 12 -1 48 -6 81 -10
33 -4 69 -9 80 -11 114 -22 640 -21 752 0 12 3 47 7 78 11 31 3 80 10 108 16
29 6 63 12 77 15 14 3 33 7 42 10 16 5 37 9 84 19 12 3 40 11 63 20 23 8 42
14 44 14 15 -2 155 56 242 99 221 109 377 255 470 440 l37 72 37 -6 c20 -4 45
-8 56 -10 39 -8 171 -4 203 5 17 5 32 8 32 6 0 -3 30 6 68 19 152 55 211 63
386 53 22 -2 40 3 43 9 7 20 -34 90 -97 167 -31 38 -193 147 -230 155 -3 0
-12 3 -20 6 -117 38 -165 48 -275 61 -27 3 -74 7 -104 9 -37 2 -56 7 -63 19
-5 9 -8 17 -6 18 2 0 19 3 38 6 55 8 174 49 252 88 266 133 460 408 468 665 3
84 6 83 -95 24 -148 -88 -481 -228 -675 -284 -36 -10 -86 -26 -112 -34 -37
-12 -49 -12 -57 -2 -8 9 5 24 53 59 197 145 329 353 352 557 13 120 7 193 -26
291 -25 74 -79 159 -100 159 -9 0 -20 -17 -28 -42 -17 -57 -99 -221 -123 -247
-11 -11 -19 -23 -19 -26 0 -7 -42 -56 -100 -115 -58 -60 -177 -147 -262 -194
-75 -40 -81 -41 -100 -23 -198 187 -573 371 -838 411 -19 3 -57 8 -85 13 -63
10 -321 10 -400 0 -290 -36 -636 -191 -875 -391 -30 -25 -59 -46 -64 -46 -16
0 -139 72 -211 124 -163 117 -282 271 -354 461 -15 38 -33 71 -41 73 -8 1 -25
-12 -37 -30z"/>
</g>
</svg>
